<svg xmlns="http://www.w3.org/2000/svg" width="256" height="256" viewBox="-4 -4 72 72" aria-hidden="true"><defs><linearGradient id="g10" x1="0" y1="0" x2="0" y2="1"><stop offset="0" stop-color="#FFE09A"></stop><stop offset="1" stop-color="#FFB020"></stop></linearGradient></defs><path d="M27 20C28 8 42 12 39 21C36 30 51 31 52 17" fill="none" stroke="#FFE09A" stroke-width="3" stroke-linecap="round" stroke-linejoin="round"></path><path d="M52.0,7.0L53.5,11.4L58.1,10.5L55.0,14.0L58.1,17.5L53.5,16.6L52.0,21.0L50.5,16.6L45.9,17.5L49.0,14.0L45.9,10.5L50.5,11.4Z" fill="#FFFFFF"></path><rect x="19" y="17" width="11" height="8" rx="2" fill="url(#g10)" transform="rotate(-15 24 21)"></rect><circle cx="24" cy="42" r="18" fill="url(#g10)"></circle><path d="M14 37A11 11 0 0 1 20 30" fill="none" stroke="#0B1A2A" stroke-width="3" stroke-linecap="round" stroke-linejoin="round"></path><circle cx="50" cy="50" r="11" fill="#FFFFFF"></circle><path d="M50 43V50L55 53" fill="none" stroke="#0B1A2A" stroke-width="2.6" stroke-linecap="round" stroke-linejoin="round"></path></svg>